<svg width="91" height="364" viewBox="0 0 91 364" fill="none" xmlns="http://www.w3.org/2000/svg">
<path d="M9.33327 29C9.33327 30.4728 10.5272 31.6667 11.9999 31.6667C13.4727 31.6667 14.6666 30.4728 14.6666 29C14.6666 27.5272 13.4727 26.3333 11.9999 26.3333C10.5272 26.3333 9.33327 27.5272 9.33327 29ZM49.3335 361C49.3335 362.473 50.5274 363.667 52.0002 363.667C53.4729 363.667 54.6668 362.473 54.6668 361C54.6668 359.527 53.4729 358.333 52.0002 358.333C50.5274 358.333 49.3335 359.527 49.3335 361ZM11.9999 29L11.6486 29.3558C12.3303 30.0289 13.0071 30.7432 13.679 31.4978L14.0524 31.1653L14.4259 30.8328C13.7406 30.0632 13.049 29.3333 12.3513 28.6442L11.9999 29ZM17.8514 35.9256L17.446 36.2182C18.5773 37.7859 19.6922 39.4688 20.7898 41.2618L21.2162 41.0008L21.6427 40.7397C20.5332 38.9273 19.4044 37.2232 18.2569 35.633L17.8514 35.9256ZM24.2376 46.2915L23.7966 46.5272C24.7226 48.26 25.6347 50.072 26.5324 51.9598L26.984 51.745L27.4355 51.5303C26.5316 49.6295 25.6124 47.8034 24.6786 46.0558L24.2376 46.2915ZM29.5056 57.3319L29.0461 57.529C29.8227 59.3391 30.5873 61.2068 31.3398 63.1295L31.8054 62.9473L32.271 62.7651C31.5148 60.8329 30.7461 58.9553 29.9651 57.1347L29.5056 57.3319ZM33.9373 68.6311L33.4668 68.8004C34.1424 70.6783 34.8072 72.6015 35.461 74.5678L35.9355 74.4101L36.4099 74.2523C35.7537 72.2786 35.0863 70.3478 34.4078 68.4619L33.9373 68.6311ZM37.798 80.2239L37.3202 80.3714C37.9065 82.2702 38.4831 84.2045 39.0498 86.1726L39.5303 86.0342L40.0107 85.8959C39.4424 83.9219 38.864 81.9815 38.2757 80.0764L37.798 80.2239ZM41.1718 91.9321L40.689 92.062C41.2081 93.9914 41.7181 95.9499 42.2189 97.936L42.7037 97.8138L43.1885 97.6916C42.6865 95.7004 42.1752 93.7369 41.6546 91.8022L41.1718 91.9321ZM44.1482 103.728L43.6617 103.843C44.126 105.806 44.5815 107.792 45.0282 109.802L45.5163 109.694L46.0044 109.586C45.5568 107.571 45.1002 105.58 44.6348 103.613L44.1482 103.728ZM46.7934 115.62L46.304 115.723C46.7177 117.702 47.123 119.703 47.5197 121.722L48.0104 121.626L48.501 121.529C48.1035 119.506 47.6974 117.502 47.2828 115.518L46.7934 115.62ZM49.1452 127.581L48.6535 127.671C49.0207 129.658 49.3798 131.662 49.7306 133.682L50.2233 133.597L50.7159 133.511C50.3644 131.488 50.0047 129.48 49.6368 127.49L49.1452 127.581ZM51.2326 139.591L50.7391 139.672C51.0644 141.665 51.3818 143.673 51.6912 145.694L52.1854 145.618L52.6797 145.543C52.3698 143.518 52.0519 141.507 51.7261 139.511L51.2326 139.591ZM53.0779 151.64L52.583 151.711C52.8697 153.711 53.1488 155.723 53.42 157.746L53.9155 157.679L54.4111 157.613C54.1395 155.587 53.8601 153.572 53.5728 151.569L53.0779 151.64ZM54.6981 163.721L54.202 163.783C54.4528 165.788 54.6959 167.804 54.9313 169.829L55.428 169.771L55.9246 169.713C55.6889 167.686 55.4454 165.667 55.1943 163.659L54.6981 163.721ZM56.106 175.826L55.6089 175.88C55.8255 177.891 56.0345 179.911 56.2358 181.937L56.7334 181.888L57.2309 181.838C57.0293 179.809 56.82 177.787 56.6031 175.773L56.106 175.826ZM57.3109 187.953L56.813 187.999C56.9967 190.015 57.1728 192.038 57.3412 194.066L57.8395 194.025L58.3378 193.983C58.1691 191.952 57.9928 189.927 57.8088 187.908L57.3109 187.953ZM58.3194 200.098L57.8208 200.135C57.9724 202.156 58.1163 204.182 58.2526 206.211L58.7514 206.178L59.2503 206.144C59.1139 204.112 58.9698 202.084 58.818 200.06L58.3194 200.098ZM59.1355 212.257L58.6364 212.287C58.7563 214.311 58.8685 216.339 58.9729 218.369L59.4722 218.343L59.9716 218.318C59.8671 216.285 59.7547 214.254 59.6346 212.227L59.1355 212.257ZM59.7612 224.428L59.2617 224.449C59.3501 226.477 59.4306 228.506 59.5032 230.536L60.0029 230.518L60.5025 230.501C60.4299 228.468 60.3492 226.436 60.2608 224.406L59.7612 224.428ZM60.1966 236.607L59.6968 236.621C59.7534 238.65 59.8019 240.68 59.8424 242.71L60.3423 242.7L60.8422 242.69C60.8017 240.657 60.753 238.625 60.6964 236.593L60.1966 236.607ZM60.4396 248.792L59.9396 248.798C59.9639 250.829 59.98 252.858 59.9878 254.886L60.4878 254.884L60.9878 254.882C60.98 252.851 60.9638 250.819 60.9395 248.786L60.4396 248.792ZM60.4864 260.98L59.9864 260.978C59.9776 263.008 59.9603 265.036 59.9346 267.061L60.4346 267.068L60.9345 267.074C60.9603 265.046 60.9775 263.015 60.9864 260.982L60.4864 260.98ZM60.3312 273.167L59.8313 273.156C59.7882 275.186 59.7364 277.212 59.6759 279.234L60.1757 279.249L60.6755 279.264C60.7361 277.239 60.7879 275.21 60.8311 273.178L60.3312 273.167ZM59.9659 285.349L59.4663 285.33C59.3874 287.358 59.2996 289.382 59.2027 291.399L59.7021 291.423L60.2015 291.447C60.2986 289.426 60.3866 287.4 60.4656 285.369L59.9659 285.349ZM59.3802 297.523L58.881 297.494C58.7644 299.521 58.6384 301.541 58.503 303.553L59.0018 303.586L59.5007 303.62C59.6364 301.604 59.7626 299.581 59.8794 297.552L59.3802 297.523ZM58.5606 309.683L58.0621 309.644C57.9052 311.669 57.7385 313.685 57.5619 315.691L58.06 315.735L58.5581 315.779C58.735 313.769 58.902 311.749 59.0591 309.722L58.5606 309.683ZM57.4906 321.823L56.993 321.774C56.7927 323.796 56.5819 325.807 56.3607 327.807L56.8577 327.862L57.3547 327.917C57.5763 325.913 57.7874 323.898 57.9882 321.873L57.4906 321.823ZM56.1493 333.936L55.653 333.875C55.4051 335.895 55.1461 337.901 54.876 339.894L55.3715 339.961L55.8669 340.028C56.1376 338.031 56.3971 336.021 56.6455 333.997L56.1493 333.936ZM54.5108 346.011L54.0162 345.937C53.7155 347.954 53.4029 349.955 53.0784 351.94L53.5718 352.02L54.0653 352.101C54.3906 350.112 54.7039 348.106 55.0053 346.085L54.5108 346.011ZM52.5428 358.033L52.0506 357.945C51.8731 358.937 51.6925 359.925 51.5087 360.908L52.0002 361L52.4916 361.092C52.6759 360.106 52.857 359.116 53.035 358.121L52.5428 358.033Z" fill="#A1A6AF"/>
<path fill-rule="evenodd" clip-rule="evenodd" d="M11.3409 28.745L11.3379 28.7427L11.3304 28.7368L11.304 28.716C11.2812 28.698 11.2485 28.6722 11.2063 28.6385C11.1222 28.5712 11.0005 28.4728 10.8468 28.3459C10.5396 28.0923 10.1035 27.724 9.58135 27.2599C8.53883 26.3332 7.14523 25.0175 5.74769 23.4646C4.35366 21.9157 2.93254 20.1055 1.85439 18.1888C0.782541 16.2833 0 14.185 0 12.0833C0 8.87864 1.27306 5.8052 3.53912 3.53912C5.8052 1.27306 8.87864 0 12.0833 0C15.2881 0 18.3615 1.27306 20.6276 3.53912C22.8936 5.8052 24.1667 8.87864 24.1667 12.0833C24.1667 14.185 23.3842 16.2833 22.3122 18.1888C21.2342 20.1055 19.813 21.9157 18.419 23.4646C17.0214 25.0175 15.6279 26.3332 14.5853 27.2599C14.0632 27.724 13.6271 28.0923 13.3198 28.3459C13.1661 28.4728 13.0444 28.5712 12.9603 28.6385C12.9182 28.6722 12.8854 28.698 12.8627 28.716L12.8362 28.7368L12.8288 28.7427L12.8265 28.7444C12.8265 28.7444 12.8251 28.7455 12.0833 27.7917L12.8251 28.7455C12.3888 29.0848 11.7773 29.0845 11.3409 28.745ZM12.0833 27.7917L11.3409 28.745C11.3409 28.745 11.3415 28.7455 12.0833 27.7917ZM15.7083 12.0833C15.7083 14.0854 14.0854 15.7083 12.0833 15.7083C10.0812 15.7083 8.45833 14.0854 8.45833 12.0833C8.45833 10.0813 10.0812 8.45833 12.0833 8.45833C14.0854 8.45833 15.7083 10.0813 15.7083 12.0833Z" fill="#2064B6"/>
<circle cx="61.4808" cy="201.481" r="29.4807" fill="#DAE1E7"/>
<g clip-path="url(#clip0_60_48)">
<path d="M37.464 193.382L37.4133 195.391C37.4133 196.538 38.5779 197.305 38.5779 197.305L41.8357 199.778L41.8669 202.65C41.8805 204.165 43.7201 203.707 43.8157 203.011L43.9367 201.399L47.5943 203.914L47.4207 206.183C47.2022 208.64 49.2408 208.268 49.4456 207.053L49.6251 205.519L54.8668 209.552C55.017 217.375 55.0531 220.595 57.0477 220.698C59.0551 220.802 59.0843 217.038 59.1936 209.665L64.6303 205.547L64.7922 207.328C64.8878 208.379 66.6728 208.631 66.6181 206.582L66.5421 203.986L70.2329 201.423L70.426 202.899C70.5762 204.224 72.248 204.343 72.3163 202.281L72.3261 199.618C72.3124 199.523 75.5019 197.309 75.5019 197.309C77.1268 196.285 76.8635 195.054 76.8635 195.054L76.7465 193.349L63.5106 199.663C62.3636 200.237 60.7028 200.444 59.5993 199.119C59.0258 198.409 58.4991 195.693 58.54 195.215L58.3957 187.853C58.3684 187.689 63.6647 183.739 63.6647 183.739C63.8012 183.603 64.1719 180.852 64.1719 180.852L57.5608 182.707L56.9326 180.987L56.5503 182.742L49.8514 180.877L50.2825 183.657C51.2246 184.244 55.6841 187.803 55.7251 187.925C55.7251 187.925 55.7521 194.427 55.7427 194.81C55.688 197.022 55.6275 197.808 55.2316 198.532C54.8353 199.256 53.7348 199.798 51.0023 199.144C47.2337 198.243 37.464 193.382 37.464 193.382Z" fill="#1D1E2C" fill-opacity="0.3"/>
</g>
<defs>
<clipPath id="clip0_60_48">
<rect width="36" height="36" fill="white" transform="matrix(0.707107 0.707107 0.707107 -0.707107 32.0001 197.456)"/>
</clipPath>
</defs>
</svg>
