<svg width="38" height="320" viewBox="0 0 38 320" fill="none" xmlns="http://www.w3.org/2000/svg">
<path d="M34.1577 16.251L34.1976 17.8316C34.1976 18.7338 33.2815 19.3369 33.2815 19.3369L30.7188 21.2827L30.6942 23.5416C30.6835 24.7338 29.2364 24.3733 29.1612 23.8255L29.0661 22.558L26.1888 24.536L26.3254 26.3206C26.4972 28.254 24.8936 27.961 24.7325 27.0051L24.5913 25.7989L20.468 28.9708C20.3499 35.1254 20.3214 37.6578 18.7524 37.7392C17.1733 37.8211 17.1503 34.8599 17.0644 29.0598L12.7876 25.8204L12.6603 27.2214C12.5851 28.0485 11.181 28.2463 11.2239 26.6352L11.2838 24.5927L8.38044 22.5764L8.22851 23.738C8.11036 24.7799 6.79524 24.8734 6.74154 23.2516L6.73387 21.1569C6.74461 21.0817 4.23564 19.34 4.23564 19.34C2.95746 18.5344 3.16452 17.5661 3.16452 17.5661L3.2566 16.2249L13.6685 21.1922C14.5707 21.6433 15.8772 21.8065 16.7452 20.7641C17.1963 20.2055 17.6107 18.0694 17.5785 17.6935L17.692 11.9021C17.7135 11.7732 13.5472 8.66574 13.5472 8.66574C13.4398 8.55833 13.1483 6.39462 13.1483 6.39462L18.3488 7.85396L18.8429 6.50051L19.1437 7.88159L24.4133 6.41458L24.0742 8.60129C23.3331 9.06316 19.8251 11.8622 19.7928 11.9589C19.7928 11.9589 19.7716 17.0736 19.779 17.3743C19.822 19.1143 19.8696 19.7329 20.1811 20.3022C20.4928 20.8719 21.3584 21.298 23.508 20.784C26.4725 20.0751 34.1577 16.251 34.1577 16.251Z" fill="black" fill-opacity="0.3"/>
<path d="M19.5 51V320" stroke="#A1A6AF" stroke-dasharray="6 6"/>
</svg>
