<svg width="31" height="30" viewBox="0 0 31 30" fill="none" xmlns="http://www.w3.org/2000/svg">
<g clip-path="url(#clip0_46_89)">
<path d="M0.5 0L13.817 27.5989C13.8666 27.6996 13.9186 27.7973 13.9805 27.8891C15.4043 30 17.566 30.5359 19.438 29.4612C20.1487 29.0526 20.7232 28.3717 21.1194 27.5575L25.8836 17.7341C23.7045 20.2803 20.7058 20.0493 18.8908 17.1094C16.2264 12.7958 14.3271 6.16402 11.5984 2.02507C11.0932 1.25827 9.80311 0 8.99339 0H0.5Z" fill="#1D1E2C"/>
<path d="M30.9252 6.11963C30.9549 6.543 30.7172 6.85978 30.5661 7.20618C29.8059 8.9411 27.2034 14.7469 26.1089 15.6469C22.1148 18.9302 17.1995 13.6988 19.6361 8.61247C20.0398 7.77166 21.6592 6.11963 22.4318 6.11963H30.9252Z" fill="#1D1E2C"/>
</g>
<defs>
<clipPath id="clip0_46_89">
<rect width="30.4276" height="30" fill="white" transform="translate(0.5)"/>
</clipPath>
</defs>
</svg>
