<svg width="25" height="29" viewBox="0 0 25 29" fill="none" xmlns="http://www.w3.org/2000/svg">
<path fill-rule="evenodd" clip-rule="evenodd" d="M11.3409 28.745L11.3379 28.7427L11.3304 28.7368L11.304 28.716C11.2812 28.698 11.2485 28.6722 11.2063 28.6385C11.1222 28.5712 11.0005 28.4728 10.8468 28.3459C10.5396 28.0923 10.1035 27.724 9.58135 27.2599C8.53883 26.3332 7.14523 25.0175 5.74769 23.4646C4.35366 21.9157 2.93254 20.1055 1.85439 18.1888C0.782541 16.2833 0 14.185 0 12.0833C0 8.87864 1.27306 5.8052 3.53912 3.53912C5.8052 1.27306 8.87864 0 12.0833 0C15.2881 0 18.3615 1.27306 20.6276 3.53912C22.8936 5.8052 24.1667 8.87864 24.1667 12.0833C24.1667 14.185 23.3841 16.2833 22.3122 18.1888C21.2342 20.1055 19.813 21.9157 18.419 23.4646C17.0214 25.0175 15.6279 26.3332 14.5853 27.2599C14.0632 27.724 13.6271 28.0923 13.3198 28.3459C13.1661 28.4728 13.0444 28.5712 12.9603 28.6385C12.9182 28.6722 12.8854 28.698 12.8627 28.716L12.8362 28.7368L12.8288 28.7427L12.8265 28.7444C12.8265 28.7444 12.8251 28.7455 12.0833 27.7917L12.8251 28.7455C12.3888 29.0848 11.7773 29.0845 11.3409 28.745ZM12.0833 27.7917L11.3409 28.745C11.3409 28.745 11.3415 28.7455 12.0833 27.7917ZM15.7083 12.0833C15.7083 14.0854 14.0854 15.7083 12.0833 15.7083C10.0812 15.7083 8.45833 14.0854 8.45833 12.0833C8.45833 10.0813 10.0812 8.45833 12.0833 8.45833C14.0854 8.45833 15.7083 10.0813 15.7083 12.0833Z" fill="#2064B6"/>
</svg>
