<svg id="Layer_2" xmlns="http://www.w3.org/2000/svg" viewBox="0 0 776.93 146.36"><defs><style>.cls-1{fill:#1d1e2c;}</style></defs><g id="Layer_1-2"><path class="cls-1" d="M0,0l76.42,132.48c.28.48.59.95.94,1.39,8.18,10.13,20.58,12.7,31.33,7.54,4.08-1.96,7.38-5.23,9.65-9.14l27.34-47.15c-12.51,12.23-29.71,11.11-40.13-3-15.3-20.7-26.2-52.55-41.86-72.41C60.79,6.04,53.39,0,48.75,0H0Z"/><path class="cls-1" d="M174.61,29.38c.18,2.03-1.19,3.56-2.06,5.22-4.36,8.32-19.3,36.2-25.58,40.51-22.92,15.75-51.14-9.35-37.15-33.77,2.31-4.04,11.61-11.96,16.05-11.96h48.75Z"/><path class="cls-1" d="M236,1.87h12.8l-17.34,64.91h-14L200.11,1.87h12.7l11.59,48.22L236,1.87Z"/><path class="cls-1" d="M253.33,8.92c0-3.9,3.06-6.95,7.05-6.95,4.45,0,7.33,3.06,7.33,6.95s-2.88,7.23-7.33,7.23c-3.99,0-7.05-3.15-7.05-7.23ZM254.45,66.78V23.19h11.68v43.58h-11.68Z"/><path class="cls-1" d="M300.25,23.19h12.8l-15.21,43.58h-12.15l-15.21-43.58h12.43l8.72,28.37,8.62-28.37Z"/><path class="cls-1" d="M315.73,8.92c0-3.9,3.06-6.95,7.05-6.95,4.45,0,7.33,3.06,7.33,6.95s-2.88,7.23-7.33,7.23c-3.99,0-7.05-3.15-7.05-7.23ZM316.85,66.78V23.19h11.68v43.58h-11.68Z"/><path class="cls-1" d="M206.23,145.16v-64.91h21.7c10.39,0,20.31,8.07,20.31,19.66,0,12.8-9.92,20.12-20.31,20.12h-9.64l.09,25.13h-12.15ZM218.38,108.35h8.25c5.29,0,8.72-3.43,8.72-8.35,0-4.36-3.43-8.16-8.72-8.16h-8.25v16.51Z"/><path class="cls-1" d="M284.49,101.58h11.59v43.58h-11.41v-1.39c-3.25,1.67-6.95,2.5-10.94,2.5-12.7,0-23-9.55-23-23s10.29-22.81,23-22.81c3.99,0,7.6.93,10.76,2.69v-1.58ZM284.49,130.51v-14.19c-1.95-2.69-5.66-5.01-10.01-5.01-6.95,0-12.05,5.19-12.05,11.96s5.1,12.15,12.05,12.15c4.45,0,8.07-2.23,10.01-4.91Z"/><path class="cls-1" d="M305.26,145.16v-64.91h11.59v64.91h-11.59Z"/><path class="cls-1" d="M323.53,123.46c0-13.54,10.48-23,23.74-23s23.74,9.55,23.74,23-10.48,22.81-23.83,22.81-23.65-9.46-23.65-22.81ZM359.32,123.46c0-7.05-5.19-12.15-12.15-12.15s-11.96,5.1-11.96,12.15,5.19,11.96,11.96,11.96,12.15-5.1,12.15-11.96Z"/><path class="cls-1" d="M378.23,145.16v-43.58h11.59v1.95c1.95-1.76,4.73-3.06,8.44-3.06,4.64,0,8.44,1.95,10.76,4.64,1.95-2.32,5.19-4.64,10.2-4.64,8.81,0,14.74,6.68,14.74,15.58v29.12h-11.59v-28c0-3.25-1.76-5.93-5.38-5.93-2.41,0-4.73,1.85-4.92,4.27v29.67h-11.59v-27.73c0-3.52-2.04-6.21-5.66-6.21-2.6,0-4.36,1.76-5.01,3.71v30.23h-11.59Z"/><path class="cls-1" d="M442.02,87.3c0-3.89,3.06-6.95,7.05-6.95,4.45,0,7.33,3.06,7.33,6.95s-2.88,7.23-7.33,7.23c-3.99,0-7.05-3.15-7.05-7.23ZM443.13,145.16v-43.58h11.68v43.58h-11.68Z"/><path class="cls-1" d="M499.51,116.04v29.12h-11.59v-27.73c0-3.52-2.13-6.21-6.12-6.21-2.41,0-4.54,1.48-5.47,3.43v30.51h-11.59v-43.58h11.59v1.95c2.04-1.76,4.91-3.06,8.62-3.06,9.18,0,14.56,6.86,14.56,15.58Z"/><path class="cls-1" d="M507.02,123.46c0-13.54,10.48-23,23.74-23s23.74,9.55,23.74,23-10.48,22.81-23.83,22.81-23.65-9.46-23.65-22.81ZM542.81,123.46c0-7.05-5.19-12.15-12.15-12.15s-11.96,5.1-11.96,12.15,5.19,11.96,11.96,11.96,12.15-5.1,12.15-11.96Z"/><path class="cls-1" d="M559.03,135.88l9.27-4.17c.83,2.41,2.5,4.54,5.47,4.54,2.78,0,4.54-1.95,4.54-4.08,0-1.76-1.11-3.62-3.71-4.45l-3.62-1.11c-5.84-1.86-10.66-5.84-10.66-12.98s6.03-13.17,14.65-13.17c6.21,0,10.48,3.34,12.52,7.05l-8.35,5.75c-.56-1.39-1.85-2.6-4.08-2.6-2.04,0-3.52,1.39-3.52,3.06s1.21,2.87,3.15,3.52l3.99,1.3c6.58,2.13,11.13,6.49,11.13,13.35,0,8.07-6.12,14.37-16.04,14.37-7.97,0-13.07-4.73-14.74-10.39Z"/><path class="cls-1" d="M597.51,138.48c0-4.45,3.71-7.97,8.07-7.97s8.07,3.52,8.07,7.97-3.52,7.88-8.07,7.88-8.07-3.62-8.07-7.88Z"/><path class="cls-1" d="M621.43,123.37c0-12.98,10.29-22.9,24.2-22.9,7.42,0,13.45,2.97,17.25,6.58l-7.33,8.53c-1.95-1.95-5.56-3.99-10.01-3.99-7.14,0-12.05,5.29-12.05,11.78s5.19,11.78,12.05,11.68c4.17,0,7.88-1.58,10.48-4.17l7.51,8.07c-4.17,4.27-10.48,7.33-17.99,7.33-14.19,0-24.11-10.02-24.11-22.9Z"/><path class="cls-1" d="M666.5,123.46c0-13.54,10.48-23,23.74-23s23.74,9.55,23.74,23-10.48,22.81-23.83,22.81-23.65-9.46-23.65-22.81ZM702.29,123.46c0-7.05-5.19-12.15-12.15-12.15s-11.96,5.1-11.96,12.15,5.19,11.96,11.96,11.96,12.15-5.1,12.15-11.96Z"/><path class="cls-1" d="M721.2,145.16v-43.58h11.59v1.95c1.95-1.76,4.73-3.06,8.44-3.06,4.64,0,8.44,1.95,10.76,4.64,1.95-2.32,5.19-4.64,10.2-4.64,8.81,0,14.74,6.68,14.74,15.58v29.12h-11.59v-28c0-3.25-1.76-5.93-5.38-5.93-2.41,0-4.73,1.85-4.92,4.27v29.67h-11.59v-27.73c0-3.52-2.04-6.21-5.66-6.21-2.6,0-4.36,1.76-5.01,3.71v30.23h-11.59Z"/></g></svg>